<svg width="628" height="205" viewBox="0 0 628 205" fill="none" xmlns="http://www.w3.org/2000/svg">
<path d="M0.248001 202V22.8H41.72V168.208H131.576V202H0.248001ZM151.932 202V64.272H191.868V202H151.932ZM171.9 45.072C164.561 45.072 158.588 42.9387 153.98 38.672C149.372 34.4053 147.068 29.1147 147.068 22.8C147.068 16.4853 149.372 11.1947 153.98 6.92799C158.588 2.66132 164.561 0.527985 171.9 0.527985C179.239 0.527985 185.212 2.57599 189.82 6.672C194.428 10.5973 196.732 15.7173 196.732 22.032C196.732 28.688 194.428 34.2347 189.82 38.672C185.383 42.9387 179.409 45.072 171.9 45.072ZM310.34 204.048C298.223 204.048 287.812 201.488 279.108 196.368C270.404 191.248 263.748 183.483 259.14 173.072C254.532 162.491 252.228 149.179 252.228 133.136C252.228 116.923 254.617 103.611 259.396 93.2C264.345 82.7893 271.172 75.024 279.876 69.904C288.58 64.784 298.735 62.224 310.34 62.224C323.311 62.224 334.916 65.1253 345.156 70.928C355.567 76.7307 363.759 84.9227 369.732 95.504C375.876 106.085 378.948 118.629 378.948 133.136C378.948 147.472 375.876 159.931 369.732 170.512C363.759 181.093 355.567 189.371 345.156 195.344C334.916 201.147 323.311 204.048 310.34 204.048ZM228.932 202V12.048H268.868V92.176L266.308 132.88L267.076 173.84V202H228.932ZM303.428 171.28C310.084 171.28 315.972 169.744 321.092 166.672C326.383 163.6 330.564 159.248 333.636 153.616C336.879 147.813 338.5 140.987 338.5 133.136C338.5 125.115 336.879 118.288 333.636 112.656C330.564 107.024 326.383 102.672 321.092 99.6C315.972 96.528 310.084 94.992 303.428 94.992C296.772 94.992 290.799 96.528 285.508 99.6C280.217 102.672 276.036 107.024 272.964 112.656C269.892 118.288 268.356 125.115 268.356 133.136C268.356 140.987 269.892 147.813 272.964 153.616C276.036 159.248 280.217 163.6 285.508 166.672C290.799 169.744 296.772 171.28 303.428 171.28ZM405.682 202V64.272H443.826V103.184L438.45 91.92C442.546 82.192 449.117 74.8533 458.162 69.904C467.207 64.784 478.215 62.224 491.186 62.224V99.088C489.479 98.9173 487.943 98.832 486.578 98.832C485.213 98.6613 483.762 98.576 482.226 98.576C471.303 98.576 462.429 101.733 455.602 108.048C448.946 114.192 445.618 123.835 445.618 136.976V202H405.682ZM590.412 202V175.12L587.852 169.232V121.104C587.852 112.571 585.207 105.915 579.916 101.136C574.796 96.3573 566.86 93.968 556.108 93.968C548.769 93.968 541.516 95.1627 534.348 97.552C527.351 99.7707 521.377 102.843 516.428 106.768L502.092 78.864C509.601 73.5733 518.647 69.4773 529.228 66.576C539.809 63.6747 550.561 62.224 561.484 62.224C582.476 62.224 598.775 67.1733 610.38 77.072C621.985 86.9707 627.788 102.416 627.788 123.408V202H590.412ZM548.428 204.048C537.676 204.048 528.46 202.256 520.78 198.672C513.1 194.917 507.212 189.883 503.116 183.568C499.02 177.253 496.972 170.171 496.972 162.32C496.972 154.128 498.935 146.96 502.86 140.816C506.956 134.672 513.356 129.893 522.06 126.48C530.764 122.896 542.113 121.104 556.108 121.104H592.716V144.4H560.46C551.073 144.4 544.588 145.936 541.004 149.008C537.591 152.08 535.884 155.92 535.884 160.528C535.884 165.648 537.847 169.744 541.772 172.816C545.868 175.717 551.415 177.168 558.412 177.168C565.068 177.168 571.041 175.632 576.332 172.56C581.623 169.317 585.463 164.624 587.852 158.48L593.996 176.912C591.095 185.787 585.804 192.528 578.124 197.136C570.444 201.744 560.545 204.048 548.428 204.048Z" fill="#2D1601"/>
</svg>
